<svg xmlns="http://www.w3.org/2000/svg" width="24.37" height="18.983" viewBox="0 0 24.37 18.983"><defs><style>.a{fill:#fff;}</style></defs><g transform="translate(-219.5 -214.017)"><path class="a" d="M24.133,26.177l7.157-7.131a2.34,2.34,0,1,0-3.309-3.309l-3.155,3.155V4.834a2.334,2.334,0,1,0-4.669,0V18.892L17,15.762A2.347,2.347,0,0,0,13,17.4a2.271,2.271,0,0,0,.693,1.642l7.131,7.131a2.333,2.333,0,0,0,1.642.693A2.393,2.393,0,0,0,24.133,26.177Z" transform="translate(217 246) rotate(-90)"/></g></svg>