<svg xmlns="http://www.w3.org/2000/svg" width="36.844" height="36.844" viewBox="0 0 36.844 36.844"><defs><style>.a{fill:#fff;}</style></defs><path class="a" d="M51.809,19H23.035A4.04,4.04,0,0,0,19,23.035V51.809a4.04,4.04,0,0,0,4.035,4.035h13a.594.594,0,0,0,.594-.594V41.9a.594.594,0,0,0-.594-.594H33.554v-3.1h2.478a.594.594,0,0,0,.594-.594v-.974c0-3.129.909-5.718,2.56-7.288a8.022,8.022,0,0,1,5.5-2.03,11.8,11.8,0,0,1,2.336.217v3.289a7.827,7.827,0,0,0-1.492-.137c-2.806,0-4.415,2.1-4.415,5.764v1.159a.594.594,0,0,0,.594.594h4.159l-1.017,3.1H41.754a.594.594,0,0,0-.594.594V55.25a.594.594,0,0,0,.594.594H51.809a4.04,4.04,0,0,0,4.035-4.035V23.035A4.04,4.04,0,0,0,51.809,19Zm2.847,32.809a2.85,2.85,0,0,1-2.847,2.847H42.349V42.491h2.93a.6.6,0,0,0,.565-.409L47.251,37.8a.595.595,0,0,0-.565-.78H42.3v-.564c0-2.087.56-4.576,3.227-4.576a6.079,6.079,0,0,1,1.9.279.595.595,0,0,0,.781-.564V27.064a.594.594,0,0,0-.446-.575,12.394,12.394,0,0,0-3.078-.357,9.219,9.219,0,0,0-6.316,2.356c-1.89,1.8-2.93,4.692-2.93,8.15v.38H32.959a.594.594,0,0,0-.594.594V41.9a.594.594,0,0,0,.594.594h2.478V54.656h-12.4a2.85,2.85,0,0,1-2.847-2.847V23.035a2.85,2.85,0,0,1,2.847-2.847H51.809a2.85,2.85,0,0,1,2.847,2.847Z" transform="translate(-19 -19)"/></svg>