<svg xmlns="http://www.w3.org/2000/svg" width="37.229" height="37.353" viewBox="0 0 37.229 37.353"><defs><style>.a{fill:none;}.b{fill:#fff;}</style></defs><path class="a" d="M33.982,37.145a8.677,8.677,0,0,1,15.785,0h6.865V28.778a2.954,2.954,0,0,0-2.946-2.955H37.577v4.294a1.015,1.015,0,1,1-2.03,0V25.823h-.732v4.294a1.015,1.015,0,1,1-2.03,0V25.823h-.868v4.294a1.015,1.015,0,1,1-2.03,0V25.835a2.954,2.954,0,0,0-2.7,2.943v8.367h6.8ZM48.618,29.9a1.261,1.261,0,0,1,1.259-1.263h2.644A1.261,1.261,0,0,1,53.78,29.9v2.652a1.261,1.261,0,0,1-1.259,1.263H49.877a1.261,1.261,0,0,1-1.259-1.263Z" transform="translate(-23.294 -21.92)"/><path class="a" d="M86.805,91.489a4.465,4.465,0,1,0,4.465-4.48A4.477,4.477,0,0,0,86.805,91.489Z" transform="translate(-72.69 -72.612)"/><path class="a" d="M50.544,109.653c.013.2.023.4.023.6a8.694,8.694,0,1,1-17.387,0c0-.2.009-.4.023-.6H27.183v12.214a2.954,2.954,0,0,0,2.946,2.955H53.685a2.954,2.954,0,0,0,2.946-2.955V109.653Z" transform="translate(-23.293 -91.373)"/><path class="b" d="M34.893,3.064H11.336A6.855,6.855,0,0,0,4.5,9.923V33.558a6.855,6.855,0,0,0,6.836,6.859H34.892a6.855,6.855,0,0,0,6.836-6.859V9.923A6.855,6.855,0,0,0,34.893,3.064ZM11.095,6.98v4.282a1.015,1.015,0,1,0,2.03,0V6.967h.868v4.294a1.015,1.015,0,1,0,2.03,0V6.967h.732v4.294a1.015,1.015,0,1,0,2.03,0V6.967H34.892a2.954,2.954,0,0,1,2.946,2.955V18.29H30.973a8.677,8.677,0,0,0-15.785,0H8.39V9.923A2.954,2.954,0,0,1,11.095,6.98ZM27.546,21.941a4.465,4.465,0,1,1-4.465-4.48A4.478,4.478,0,0,1,27.546,21.941Zm7.347,14.573H11.336A2.954,2.954,0,0,1,8.39,33.558V21.344H14.41c-.013.2-.023.4-.023.6a8.694,8.694,0,1,0,17.387,0c0-.2-.009-.4-.023-.6h6.087V33.558A2.954,2.954,0,0,1,34.893,36.514Z" transform="translate(-4.5 -3.064)"/><path class="b" d="M153.422,47.4h2.644a1.261,1.261,0,0,0,1.259-1.263V43.483a1.261,1.261,0,0,0-1.259-1.263h-2.644a1.261,1.261,0,0,0-1.259,1.263v2.652A1.261,1.261,0,0,0,153.422,47.4Z" transform="translate(-126.838 -35.505)"/></svg>