<svg xmlns="http://www.w3.org/2000/svg" width="14.941" height="22.3" viewBox="0 0 14.941 22.3"><defs><style>.a{opacity:0.5;}.b{fill:#659d89;}</style></defs><g class="a" transform="translate(-51.8 -73.762)"><g transform="translate(51.8 73.762)"><path class="b" d="M27.307,4.9h-.222A5.562,5.562,0,0,0,21.8,10.531v1.778h-.123a1.444,1.444,0,0,0-1.457,1.457v6.742a1.444,1.444,0,0,0,1.457,1.457H32.864a1.444,1.444,0,0,0,1.457-1.457V13.766a1.444,1.444,0,0,0-1.457-1.457h-.049V10.382A5.507,5.507,0,0,0,27.307,4.9Zm1.037,13.928a.274.274,0,0,1-.272.321h-1.63a.274.274,0,0,1-.272-.321l.321-1.531a1.207,1.207,0,0,1,.617-2.124h.148a1.211,1.211,0,0,1,.766,2.149Zm2.05-6.52H24.2V10.481A3.165,3.165,0,0,1,26.986,7.3c.1,0,.2-.025.3-.025a3.114,3.114,0,0,1,3.112,3.112v1.926ZM20.467,25.694a1.32,1.32,0,0,1,.346-.148.458.458,0,0,1-.173-.049.619.619,0,0,1-.173-.1L19.8,25l.321-.543.667.4a1.539,1.539,0,0,1,.3.222,1.457,1.457,0,0,1-.049-.346v-.815H21.7V24.9a.458.458,0,0,1-.049.173l.123-.123c.049-.025.1-.074.148-.1l.667-.4.321.543-.667.4c-.049.025-.123.074-.173.1a.458.458,0,0,1-.173.049,1.164,1.164,0,0,1,.37.148l.667.4-.321.568-.667-.4a1.539,1.539,0,0,1-.3-.222,1.458,1.458,0,0,1,.049.346V27.2h-.667v-.988a.458.458,0,0,1,.049-.173l-.123.123c-.049.025-.1.074-.148.1l-.667.4-.321-.543Zm5.556-.2a.458.458,0,0,1-.173.049,1.164,1.164,0,0,1,.37.148l.667.4-.346.568-.667-.4a1.539,1.539,0,0,1-.3-.222,1.457,1.457,0,0,1,.049.346V27.2h-.667v-.988a.458.458,0,0,1,.049-.173l-.123.123c-.049.025-.1.074-.148.1l-.691.37-.321-.543.667-.4a1.32,1.32,0,0,1,.346-.148.458.458,0,0,1-.173-.049.619.619,0,0,1-.173-.1l-.667-.4.321-.543.667.4a1.539,1.539,0,0,1,.3.222,1.457,1.457,0,0,1-.049-.346v-.815h.667V24.9a.458.458,0,0,1-.049.173l.123-.123c.049-.025.1-.074.148-.1l.667-.4.321.543-.667.4C26.147,25.447,26.073,25.471,26.023,25.5Zm3.927,0a.458.458,0,0,1-.173.049,1.164,1.164,0,0,1,.37.148l.667.4-.346.568-.667-.4a1.539,1.539,0,0,1-.3-.222,1.458,1.458,0,0,1,.049.346V27.2h-.667v-.988a.458.458,0,0,1,.049-.173l-.123.123c-.049.025-.1.074-.148.1l-.667.4-.321-.543.667-.4a1.32,1.32,0,0,1,.346-.148.458.458,0,0,1-.173-.049.619.619,0,0,1-.173-.1l-.667-.4L28,24.484l.667.4a1.539,1.539,0,0,1,.3.222,1.458,1.458,0,0,1-.049-.346V23.94h.667v.988a.458.458,0,0,1-.049.173l.123-.123c.049-.025.1-.074.148-.1l.667-.4.321.543-.667.4C30.073,25.447,30,25.471,29.95,25.5Zm3.927,0a.458.458,0,0,1-.173.049,1.164,1.164,0,0,1,.37.148l.667.4-.346.568-.667-.4a1.539,1.539,0,0,1-.3-.222,1.457,1.457,0,0,1,.049.346V27.2h-.667v-.988a.458.458,0,0,1,.049-.173l-.123.123c-.049.025-.1.074-.148.1l-.667.4-.321-.543.667-.4a1.32,1.32,0,0,1,.346-.148.458.458,0,0,1-.173-.049.619.619,0,0,1-.173-.1l-.667-.4.321-.543.667.4a1.539,1.539,0,0,1,.3.222,1.457,1.457,0,0,1-.049-.346V23.94h.667v.988a.458.458,0,0,1-.049.173l.123-.123c.049-.025.1-.074.148-.1l.667-.4.321.543-.667.4C34,25.447,33.926,25.471,33.876,25.5Z" transform="translate(-19.8 -4.9)"/></g></g></svg>