<svg xmlns="http://www.w3.org/2000/svg" width="47.982" height="35.456" viewBox="0 0 47.982 35.456"><defs><style>.a{fill:#fff;}</style></defs><path class="a" d="M41.374,9.622c-.227-1.023-1.1-4.584-2.462-5.947L38.8,3.561A10.26,10.26,0,0,0,31.526.038,7.3,7.3,0,0,0,30.616,0c-3.788,0-5.909,2.235-7.462,4.432A16.989,16.989,0,0,0,21.26,8.75a16.785,16.785,0,0,1-2.008,4.47c-1.78,2.424-5,2.879-6.781,2.955h-.341a15.675,15.675,0,0,1-7.046-1.932,17.066,17.066,0,0,1-3.94-3.523L.274,9.7.123,11.023A49.191,49.191,0,0,0-.1,18.107a19.54,19.54,0,0,0,5.758,11.97c3.75,3.6,9.015,5.379,16.023,5.379,10.569,0,15.3-7.614,17.084-10.493a18.54,18.54,0,0,0,2.424-7.917l6.629-4.2Zm-1.25,6.818v.3a17.95,17.95,0,0,1-2.273,7.652c-1.7,2.727-6.174,9.962-16.1,9.962-6.7,0-11.667-1.667-15.228-5.076a18.367,18.367,0,0,1-5.417-11.25,37.979,37.979,0,0,1,.114-5.568,16.782,16.782,0,0,0,3.371,2.8,16.916,16.916,0,0,0,7.576,2.083h.379c1.97-.076,5.606-.606,7.652-3.409a19.033,19.033,0,0,0,2.159-4.773A17.448,17.448,0,0,1,24.1,5.152c1.439-2.121,3.258-4.015,6.515-4.015a6.421,6.421,0,0,1,.833.038A9.23,9.23,0,0,1,38,4.356l.114.114c1.1,1.1,1.97,4.432,2.2,5.644l.038.265,5.19,2.576Z" transform="translate(0.168)"/><path class="a" d="M36.122,42.7l-1.1.3.076,1.174a10.288,10.288,0,0,1-2.083,6.478c-1.553,1.894-3.94,2.955-7.084,3.22-.417.038-.833.038-1.25.038h0c-5.568,0-8.144-3.068-9.015-4.394l-.53-1.061-1.136.3.265.606c.114.227,2.689,5.644,10.379,5.644h0c.417,0,.871,0,1.326-.038,3.447-.265,6.1-1.477,7.879-3.636a11.658,11.658,0,0,0,2.311-7.993Z" transform="translate(-8.633 -26.525)"/><path class="a" d="M84.071,14.7a3.371,3.371,0,1,0,3.371,3.371A3.379,3.379,0,0,0,84.071,14.7Zm0,5.568a2.239,2.239,0,0,1-2.235-2.235,2.235,2.235,0,1,1,2.235,2.235Z" transform="translate(-50.067 -9.132)"/></svg>