<svg xmlns="http://www.w3.org/2000/svg" width="19.2" height="21.967" viewBox="0 0 19.2 21.967"><defs><style>.a{opacity:0.5;}.b{fill:none;}.c{fill:#659d89;}</style></defs><g class="a" transform="translate(-454.8 400.9)"><g transform="translate(454.8 -400.9)"><g transform="translate(0 0)"><path class="b" d="M42.333,25.467A4.133,4.133,0,1,0,38.2,21.333,4.176,4.176,0,0,0,42.333,25.467Z" transform="translate(-32.733 -15.833)"/><path class="c" d="M38.467,48.9H33.333l-.067.567A3.089,3.089,0,0,1,32.9,50.5a1.671,1.671,0,0,1-1.533.933h-.033c-1.6,0-1.867-1.933-1.9-2l-.067-.533H24.233L21.8,58.467l1.233.3,2.167-8.6h3.1a3.253,3.253,0,0,0,3.033,2.567h.033A3.253,3.253,0,0,0,34.4,50.167h3.1l2.267,8.767L41,58.6Z" transform="translate(-21.8 -36.967)"/><path class="c" d="M39.6,24.133a5.517,5.517,0,1,0-5.5-5.5A5.505,5.505,0,0,0,39.6,24.133Zm0-9.667A4.133,4.133,0,1,1,35.467,18.6,4.154,4.154,0,0,1,39.6,14.467Z" transform="translate(-30 -13.1)"/></g></g></g></svg>